<svg id="Слой_1" data-name="Слой 1" xmlns="http://www.w3.org/2000/svg" viewBox="0 0 887.16 145.27"><defs><style>.cls-1{fill:#8dbbfc;}.cls-2{fill:#ffec00;}</style></defs><title>logo</title><path class="cls-1" d="M220.61,58.69h7.57a3.22,3.22,0,0,1,2,.61,3.06,3.06,0,0,1,1.08,1.55l13.92,46.83c.25.85.47,1.75.68,2.72s.4,2,.59,3.06c.21-1.07.43-2.09.65-3.08a23.1,23.1,0,0,1,.76-2.7l15.84-46.83a3.45,3.45,0,0,1,1.11-1.48,3,3,0,0,1,2-.68h2.64a3.09,3.09,0,0,1,2,.61,3.38,3.38,0,0,1,1.11,1.55l15.75,46.83a46.88,46.88,0,0,1,1.5,5.59c.19-1,.36-2,.52-3a21.17,21.17,0,0,1,.61-2.63l14-46.83a2.88,2.88,0,0,1,1-1.5,3.11,3.11,0,0,1,2-.66h7.1l-21,67.37h-8.19L268.8,74.67a27.19,27.19,0,0,1-.94-3.38c-.16.62-.31,1.23-.45,1.81s-.29,1.1-.45,1.57L249.8,126.06h-8.18Z" transform="translate(-6.84 -9.92)"/><path class="cls-1" d="M337.63,77.68a21.42,21.42,0,0,1,7.9,1.43,17.88,17.88,0,0,1,6.25,4.14,18.76,18.76,0,0,1,4.11,6.68,25.72,25.72,0,0,1,1.48,9,5.45,5.45,0,0,1-.42,2.63,1.75,1.75,0,0,1-1.6.66H323.66a26.54,26.54,0,0,0,1.23,7.85,15.83,15.83,0,0,0,3.1,5.57,12.36,12.36,0,0,0,4.7,3.34,16.1,16.1,0,0,0,6.11,1.11,18.11,18.11,0,0,0,5.43-.73,25.84,25.84,0,0,0,3.93-1.58,30.47,30.47,0,0,0,2.75-1.57,3.62,3.62,0,0,1,1.9-.73,1.84,1.84,0,0,1,1.6.8l2.35,3a15.59,15.59,0,0,1-3.71,3.27,22.64,22.64,0,0,1-4.63,2.28,28.56,28.56,0,0,1-5.1,1.34,31,31,0,0,1-5.22.45,24.27,24.27,0,0,1-9.1-1.67,19.9,19.9,0,0,1-7.19-4.89,22.48,22.48,0,0,1-4.73-8,32.59,32.59,0,0,1-1.69-10.91A27.76,27.76,0,0,1,316.92,92a21.92,21.92,0,0,1,4.39-7.49,20.22,20.22,0,0,1,7-5A22.94,22.94,0,0,1,337.63,77.68Zm.19,6.16q-6.07,0-9.55,3.5A16.49,16.49,0,0,0,324,97.05h25.9a17,17,0,0,0-.8-5.33,11.77,11.77,0,0,0-2.35-4.19,10.62,10.62,0,0,0-3.78-2.73A12.81,12.81,0,0,0,337.82,83.84Z" transform="translate(-6.84 -9.92)"/><path class="cls-1" d="M400.67,126.06H397a4.55,4.55,0,0,1-2-.37,2.1,2.1,0,0,1-1-1.6l-.94-4.42q-1.89,1.69-3.67,3a21.93,21.93,0,0,1-3.76,2.26,19.42,19.42,0,0,1-4.21,1.38,23.68,23.68,0,0,1-5,.47,16.79,16.79,0,0,1-5.19-.78,11.61,11.61,0,0,1-4.21-2.33,11.21,11.21,0,0,1-2.85-3.94,13.92,13.92,0,0,1-1-5.64,10.46,10.46,0,0,1,1.55-5.44,13.57,13.57,0,0,1,5-4.65,32.85,32.85,0,0,1,9.05-3.33,62,62,0,0,1,13.69-1.3V95.67c0-3.73-.8-6.54-2.38-8.45s-3.92-2.86-7-2.86a15,15,0,0,0-5.14.77,19.82,19.82,0,0,0-3.63,1.74c-1,.65-1.89,1.22-2.63,1.74a3.75,3.75,0,0,1-2.18.78,2.47,2.47,0,0,1-1.48-.45,3.22,3.22,0,0,1-1-1.1l-1.51-2.68A27.09,27.09,0,0,1,374,79.47a26.35,26.35,0,0,1,10.11-1.88,18.2,18.2,0,0,1,7.1,1.31,14.55,14.55,0,0,1,5.22,3.67,15.58,15.58,0,0,1,3.19,5.69,23.73,23.73,0,0,1,1.08,7.33ZM379,120.94a17,17,0,0,0,4.05-.45,16,16,0,0,0,3.45-1.27,17.78,17.78,0,0,0,3.1-2,25.65,25.65,0,0,0,2.9-2.68v-9.82a56.07,56.07,0,0,0-9.83.73,27.78,27.78,0,0,0-6.58,1.91,9.16,9.16,0,0,0-3.69,2.8,6,6,0,0,0-1.16,3.59,7.9,7.9,0,0,0,.62,3.26,6.1,6.1,0,0,0,1.64,2.25,6.59,6.59,0,0,0,2.45,1.28A11.42,11.42,0,0,0,379,120.94Z" transform="translate(-6.84 -9.92)"/><path class="cls-1" d="M425.45,126.81q-5.64,0-8.67-3.15t-3-9.07V85.44H408a1.86,1.86,0,0,1-1.27-.45,1.7,1.7,0,0,1-.52-1.38V80.27l7.81-1L416,64.56a1.83,1.83,0,0,1,.61-1.15,2,2,0,0,1,1.32-.44h4.23v16.4h13.64v6.07H422.11V114a6.09,6.09,0,0,0,1.46,4.47,5.1,5.1,0,0,0,3.76,1.46,6.49,6.49,0,0,0,2.28-.36,9.66,9.66,0,0,0,1.67-.77c.47-.28.87-.54,1.2-.77a1.56,1.56,0,0,1,.87-.36,1.43,1.43,0,0,1,1.17.8l2.45,4a15.71,15.71,0,0,1-5.22,3.17A17.69,17.69,0,0,1,425.45,126.81Z" transform="translate(-6.84 -9.92)"/><path class="cls-1" d="M443.74,126.06V56.81h8.37v28a25.79,25.79,0,0,1,6.77-5.2,18.12,18.12,0,0,1,8.55-1.95,17.07,17.07,0,0,1,6.89,1.3,13.41,13.41,0,0,1,5,3.66,16.33,16.33,0,0,1,3,5.71,24.91,24.91,0,0,1,1,7.39v30.32H475V95.74q0-5.42-2.46-8.4c-1.65-2-4.17-3-7.55-3a14.09,14.09,0,0,0-6.94,1.78A23,23,0,0,0,452.11,91v35.07Z" transform="translate(-6.84 -9.92)"/><path class="cls-1" d="M512.52,77.68a21.38,21.38,0,0,1,7.9,1.43,17.79,17.79,0,0,1,6.25,4.14,18.92,18.92,0,0,1,4.12,6.68,26,26,0,0,1,1.48,9,5.45,5.45,0,0,1-.42,2.63,1.77,1.77,0,0,1-1.6.66H498.56a26.24,26.24,0,0,0,1.22,7.85,16,16,0,0,0,3.1,5.57,12.39,12.39,0,0,0,4.71,3.34,16,16,0,0,0,6.11,1.11,18.11,18.11,0,0,0,5.43-.73,25.69,25.69,0,0,0,3.92-1.58,29.13,29.13,0,0,0,2.75-1.57,3.62,3.62,0,0,1,1.91-.73,1.86,1.86,0,0,1,1.6.8l2.35,3a15.84,15.84,0,0,1-3.72,3.27,22.39,22.39,0,0,1-4.63,2.28,28.12,28.12,0,0,1-5.1,1.34,30.93,30.93,0,0,1-5.22.45,24.31,24.31,0,0,1-9.1-1.67,19.9,19.9,0,0,1-7.19-4.89,22.32,22.32,0,0,1-4.72-8,32.33,32.33,0,0,1-1.7-10.91A27.76,27.76,0,0,1,491.81,92a21.94,21.94,0,0,1,4.4-7.49,20.18,20.18,0,0,1,7-5A22.94,22.94,0,0,1,512.52,77.68Zm.19,6.16q-6.06,0-9.55,3.5a16.55,16.55,0,0,0-4.32,9.71h25.91a17,17,0,0,0-.8-5.33,12.09,12.09,0,0,0-2.35-4.19,10.74,10.74,0,0,0-3.79-2.73A12.81,12.81,0,0,0,512.71,83.84Z" transform="translate(-6.84 -9.92)"/><path class="cls-1" d="M540.59,126.06V78.43h4.79a2.66,2.66,0,0,1,1.88.52,3.18,3.18,0,0,1,.71,1.79l.56,7.43a22,22,0,0,1,6-7.79A13.39,13.39,0,0,1,563,77.59a13.23,13.23,0,0,1,3.58.45,12.34,12.34,0,0,1,3,1.24l-1.08,6.25A1.42,1.42,0,0,1,567,86.71a7.26,7.26,0,0,1-2-.45,12.68,12.68,0,0,0-3.81-.45,10.81,10.81,0,0,0-7.31,2.54A19.05,19.05,0,0,0,549,95.74v30.32Z" transform="translate(-6.84 -9.92)"/><path class="cls-2" d="M616.09,57.94a18.54,18.54,0,0,1,6.77,1.19,17.42,17.42,0,0,1,5.29,3.18,14.9,14.9,0,0,1,3.53,4.58,14.2,14.2,0,0,1,1.48,5.43l-5.22,1a2.19,2.19,0,0,1-.42,0,2.08,2.08,0,0,1-1.15-.33,1.88,1.88,0,0,1-.78-1.17,11.19,11.19,0,0,0-1.06-2.54,9.72,9.72,0,0,0-1.88-2.4,9.32,9.32,0,0,0-6.56-2.49,11.38,11.38,0,0,0-4.23.75,9.58,9.58,0,0,0-3.22,2.09,9.4,9.4,0,0,0-2.06,3.15,10.37,10.37,0,0,0-.73,3.93,12.47,12.47,0,0,0,.39,3.15,15.14,15.14,0,0,0,1.2,3,22.37,22.37,0,0,0,2.07,3.16,40.37,40.37,0,0,0,3.06,3.4l19.37,19.7a32.62,32.62,0,0,0,2.84-6.6,37.09,37.09,0,0,0,1.44-6.94,2.44,2.44,0,0,1,.56-1.41,1.7,1.7,0,0,1,1.32-.52h5.17a37.46,37.46,0,0,1-6.49,20.41l14.11,14.29H642.8a6.16,6.16,0,0,1-2.21-.33,5.76,5.76,0,0,1-1.88-1.36l-6.77-6.82a33.86,33.86,0,0,1-10.18,6.77,31.58,31.58,0,0,1-12.67,2.49,22,22,0,0,1-7.38-1.27,20,20,0,0,1-6.47-3.69,18.56,18.56,0,0,1-4.58-5.9,17.29,17.29,0,0,1-1.74-7.85,17.5,17.5,0,0,1,1.11-6.23,20.2,20.2,0,0,1,3.05-5.43A24,24,0,0,1,597.71,92a31.36,31.36,0,0,1,5.88-3.38,28.56,28.56,0,0,1-4.23-7,19.08,19.08,0,0,1-1.37-7.1A16.65,16.65,0,0,1,599.24,68a15.11,15.11,0,0,1,3.6-5.25,17.11,17.11,0,0,1,5.71-3.52A20.92,20.92,0,0,1,616.09,57.94Zm-18.66,49.5a12.28,12.28,0,0,0,1.13,5.39,12.12,12.12,0,0,0,3,3.92,12.48,12.48,0,0,0,4.18,2.42,14.43,14.43,0,0,0,4.8.83,22.41,22.41,0,0,0,9.45-1.93,25.42,25.42,0,0,0,7.38-5.12L607.44,92.87a20.56,20.56,0,0,0-7.5,6.42A14.35,14.35,0,0,0,597.43,107.44Z" transform="translate(-6.84 -9.92)"/><path class="cls-1" d="M707.09,104.08q.49,1.24,1,2.52.48-1.32,1-2.52c.34-.8.74-1.6,1.18-2.42L733,60.24a2.74,2.74,0,0,1,1.27-1.32,6,6,0,0,1,1.88-.23h6.72v67.37h-8V76.55c0-.65,0-1.36.05-2.11s.07-1.52.14-2.3L712,114.26a3.63,3.63,0,0,1-3.29,2.12h-1.32a3.65,3.65,0,0,1-3.29-2.12L680.5,72q.15,1.23.21,2.4c0,.78.07,1.51.07,2.16v49.51h-8V58.69h6.73a6.09,6.09,0,0,1,1.88.23,2.73,2.73,0,0,1,1.26,1.32l23.28,41.47A17.3,17.3,0,0,1,707.09,104.08Z" transform="translate(-6.84 -9.92)"/><path class="cls-1" d="M774.91,77.68a24.49,24.49,0,0,1,9.43,1.74,19.93,19.93,0,0,1,7.14,4.94A22,22,0,0,1,796,92.09a33.56,33.56,0,0,1,0,20.29,22,22,0,0,1-4.52,7.71,19.62,19.62,0,0,1-7.14,4.91,26.71,26.71,0,0,1-18.86,0,19.9,19.9,0,0,1-7.17-4.91,22.09,22.09,0,0,1-4.56-7.71,33,33,0,0,1,0-20.29,22.09,22.09,0,0,1,4.56-7.73,20.23,20.23,0,0,1,7.17-4.94A24.49,24.49,0,0,1,774.91,77.68Zm0,42.5q7.05,0,10.53-4.72t3.48-13.19q0-8.51-3.48-13.26t-10.53-4.75a14.58,14.58,0,0,0-6.21,1.23A11.59,11.59,0,0,0,764.31,89a15.66,15.66,0,0,0-2.64,5.67,33.46,33.46,0,0,0,0,15.16,15.34,15.34,0,0,0,2.64,5.62,11.63,11.63,0,0,0,4.39,3.5A14.58,14.58,0,0,0,774.91,120.18Z" transform="translate(-6.84 -9.92)"/><path class="cls-1" d="M824.84,77.68a24.49,24.49,0,0,1,9.43,1.74,19.93,19.93,0,0,1,7.14,4.94,22,22,0,0,1,4.52,7.73,33.56,33.56,0,0,1,0,20.29,22,22,0,0,1-4.52,7.71,19.62,19.62,0,0,1-7.14,4.91,26.71,26.71,0,0,1-18.86,0,19.9,19.9,0,0,1-7.17-4.91,22.09,22.09,0,0,1-4.56-7.71,33,33,0,0,1,0-20.29,22.09,22.09,0,0,1,4.56-7.73,20.23,20.23,0,0,1,7.17-4.94A24.49,24.49,0,0,1,824.84,77.68Zm0,42.5q7,0,10.53-4.72t3.48-13.19q0-8.51-3.48-13.26t-10.53-4.75a14.58,14.58,0,0,0-6.21,1.23A11.59,11.59,0,0,0,814.24,89a15.66,15.66,0,0,0-2.64,5.67,33.46,33.46,0,0,0,0,15.16,15.34,15.34,0,0,0,2.64,5.62,11.63,11.63,0,0,0,4.39,3.5A14.58,14.58,0,0,0,824.84,120.18Z" transform="translate(-6.84 -9.92)"/><path class="cls-1" d="M889,126.06a2.13,2.13,0,0,1-2.26-1.74l-.75-5.78a25,25,0,0,1-7,5.94,17.73,17.73,0,0,1-9,2.24,17.24,17.24,0,0,1-7.43-1.58,15.44,15.44,0,0,1-5.69-4.63,22.16,22.16,0,0,1-3.62-7.61A39.51,39.51,0,0,1,852,102.41a32.56,32.56,0,0,1,1.42-9.8,23.86,23.86,0,0,1,4.06-7.87,18.63,18.63,0,0,1,15.12-7.15,17.19,17.19,0,0,1,7.47,1.48,17.9,17.9,0,0,1,5.55,4.16V56.81H894v69.25ZM872.8,120a13.55,13.55,0,0,0,7.17-1.88,20.59,20.59,0,0,0,5.66-5.32v-23a13.27,13.27,0,0,0-5-4.35,14.64,14.64,0,0,0-6.09-1.25q-6.68,0-10.25,4.75t-3.57,13.54a34.66,34.66,0,0,0,.79,8,15.29,15.29,0,0,0,2.36,5.45,9.21,9.21,0,0,0,3.8,3.13A12.8,12.8,0,0,0,872.8,120Z" transform="translate(-6.84 -9.92)"/><circle class="cls-2" cx="87.41" cy="90.44" r="54.47"/><rect class="cls-2" x="81.94" width="8.86" height="31.28" rx="1.13" ry="1.13"/><rect class="cls-2" x="45.01" y="24.82" width="8.86" height="31.28" rx="1.13" ry="1.13" transform="translate(-21.18 26.87) rotate(-36)"/><rect class="cls-2" x="18.36" y="62.59" width="8.86" height="31.28" rx="1.13" ry="1.13" transform="translate(-65.5 65.81) rotate(-72)"/><rect class="cls-2" x="19" y="108.82" width="8.86" height="31.28" rx="1.13" ry="1.13" transform="translate(-94.54 175.29) rotate(-108)"/><rect class="cls-2" x="132.94" y="23.59" width="8.86" height="31.28" rx="1.13" ry="1.13" transform="translate(42.45 -83.17) rotate(36)"/><path class="cls-1" d="M171.35,110.34c0-24.78-18.13-44.86-40.49-44.86-15.16,0-28.37,9.25-35.31,22.93a27.55,27.55,0,0,0-5.17-.5c-13.25,0-24.51,9.4-28.65,22.51-.57,0-1.13-.08-1.71-.08-11.18,0-20.24,10-20.24,22.42S48.84,155.19,60,155.19H171.35c11.17,0,20.24-10,20.24-22.43S182.52,110.34,171.35,110.34Z" transform="translate(-6.84 -9.92)"/></svg>